<?xml version="1.0" encoding="UTF-8"?>
<svg xmlns="http://www.w3.org/2000/svg" version="1.1" viewBox="0 0 869 1469">
  <defs>
    <style>
      .cls-1 {
        fill: #45b9ff;
      }

      .cls-2 {
        stroke: #fff;
      }

      .cls-2, .cls-3, .cls-4 {
        fill: none;
        stroke-miterlimit: 10;
      }

      .cls-3 {
        stroke: #ed3200;
      }

      .cls-4 {
        stroke: #000;
      }
    </style>
  </defs>
  <!-- Generator: Adobe Illustrator 28.7.1, SVG Export Plug-In . SVG Version: 1.2.0 Build 142)  -->
  <g>
    <g id="Layer_1">
      <path class="cls-2" d="M598.5,430.5l4-85,6,5-5,157,6,5-1,48s21,1,29,10l132-103,9,6-111,91,77,53,102-106,4,1-101,107,56,37-114,143,4,17-4,7,69,41-4,6-74-39-5,8-16,3-19,29-22-9-13,8-28,41-10-5-40,57-173-103-67,83-36-20-15,25-3-1,15-25-209-120-15,1-7,9-5,1,13-14-24-17-1-7,23,14,14-4,42-48,61,36,5-5,88,55,9.2-3.8,2.8-1.2,3-2s-11-11,7-15l4-1,38-102-4-7,54-66-5-5,7-5-51-51,102-80,34,47,21,11v-26l-14-8-15-20,53,2v11l-21,16v28l7,4,131-119Z"/>
      <polygon class="cls-2" points="68.5 673.5 41.5 704.5 141.5 764.5 146.5 759.5 154.5 765.5 175.5 739.5 68.5 673.5"/>
      <path class="cls-2" d="M77.5,733.5l-46-28,36-41,117,70-26,33,77,49,4-2s-2-22,17-19l35-94-5.3-8.5,55.3-66.5-183-188,11-10,124,129,110-83,37,52,13,8v-14l-14-7-19-30,67,3v18.3l-21,16.7,1,19,127-114,4-91,15,15-3,154,5,4v46.2s11-.2,23,7.8l130-102,18,14-109,89,66,47,105-107,10,9-101,106,57,38-116,145,5.5,15-3.5,6,72,42-13,17-72-42-4,6-17,3-20.2,33-24.8-11-8,5-31,45-9-5-42,57-171-100-70,80-35-19-13,21-17-2,17-27-204-116-7,.8-9,8.2-18,1,14-18-18.5-13.6v-22.4l27.5,18,10-3,40-47Z"/>
      <polygon class="cls-2" points="604.5 587.5 573.5 611.5 598.5 630.5 628.5 604.5 604.5 587.5"/>
      <polygon class="cls-2" points="605.5 594.5 582.5 610.5 598.5 623.5 619.5 604.5 605.5 594.5"/>
      <polyline class="cls-4" points="347.5 528.5 365.5 543.5 363.5 545.5 345.5 529.5 345.5 529.5"/>
      <path class="cls-4" d="M346.5,529.3"/>
      <path class="cls-4" d="M346.5,529.4"/>
      <polyline class="cls-4" points="426.5 519.5 388.5 547.5 390.5 549.5 386.5 552.5 394.5 560.5 381.5 570.5 383.5 572.5 397.5 561.5 399.5 563.5 404 563.4 419.5 549.5 417.5 547.5 403.5 560.5 399.5 560.5 391.5 552.5 394.5 549.5 392.5 546.5 428.5 522.5"/>
      <polyline class="cls-4" points="445.5 537.5 356.5 619.5 355.5 620.5 351.5 615.5"/>
      <polyline class="cls-4" points="349.5 625.5 369.5 644.5 344.5 676.5 347.5 678.5 372.5 646.5 399.5 671.5 365.5 728.5 328.5 704.5 323.5 702.5 299.5 702.5"/>
      <polyline class="cls-4" points="297.7 705.2 322.5 705.5 327.5 707.5 363.5 731.5 350.5 755.5 285.5 739.5"/>
      <polyline class="cls-4" points="284.5 741.5 348.5 757.5 332.5 785.5 272 772.3"/>
      <polyline class="cls-4" points="272 775.2 330.5 789.5 302.5 835.5 260.5 809.5 261.5 800.5"/>
      <polyline class="cls-4" points="257.5 801.5 257.5 809.2 249.5 814.5"/>
      <polyline class="cls-4" points="250.5 816.5 256.5 813.5 248.5 826.5 239.5 822.5"/>
      <polyline class="cls-4" points="208.5 897.5 260.5 813.5 300.5 838.5 249.5 920.5"/>
      <polyline class="cls-4" points="235.5 823.5 246.5 829.5 204.5 895.5"/>
      <polyline class="cls-4" points="219.2 814.5 201.5 837.5 190.5 838.5 61 761"/>
      <polyline class="cls-4" points="64.1 758.3 115.5 790.5 133.6 768.3"/>
      <polyline class="cls-4" points="135.5 770.5 118.5 791.5 121.5 793.5 139.5 772.5"/>
      <polyline class="cls-4" points="142.6 774.4 123.5 794.5 190.5 834.5 199.5 834.5 216.5 812.5"/>
      <polygon class="cls-4" points="160.5 785.5 145.5 803.5 148.5 805.5 163.5 787.5 160.5 785.5"/>
      <path class="cls-4" d="M138.5,811.5"/>
      <polyline class="cls-4" points="113.5 842.5 138.5 811.5 141.5 813.5 116.5 845.5"/>
      <polyline class="cls-4" points="253.5 923.5 273.5 891.5 306.5 905.5 311.5 898.5 277.5 882.5 295.5 851.9 343.5 864.5 349.5 868.5"/>
      <polygon class="cls-4" points="276.5 885.5 274.5 888.5 305.5 902.5 307.5 900.5 276.5 885.5"/>
      <polyline class="cls-4" points="306.5 921.5 298.5 916.5 301.5 913.7 308.5 918.5"/>
      <polyline class="cls-4" points="328.5 894.5 322.1 887.7 313.5 882.5 311.3 885.5 318.5 889.5 326.2 898.1"/>
      <polygon class="cls-4" points="298.5 848.5 338.5 858.5 343.5 860.5 386.5 797.5 344.5 773.5 298.5 848.5"/>
      <polyline class="cls-4" points="351.5 865.5 346.5 862.5 390.5 799.5 407.5 810.5 409.5 807.5 392.5 797.5 420.5 757.5 477.5 789.5 439.5 840.5 442.5 842.5 480.5 791.5 532.5 822.5 459.5 921.5"/>
      <polygon class="cls-4" points="346.5 769.6 388.5 794.5 409.5 766.5 398.5 760.5 400.4 757.5 411.6 763.5 456.5 703.5 403.5 673.5 346.5 769.6"/>
      <polyline class="cls-4" points="450.2 538.7 358.5 622.5 374.5 637.5 467.5 549.5"/>
      <polygon class="cls-4" points="468.5 551.5 377.5 640.5 406.5 668.5 468.5 703.1 500.5 666.5 485.6 594.5 507.5 576.5 468.5 551.5"/>
      <polyline class="cls-4" points="469.1 548 510.5 574.5 539.5 548.5 491.9 527.4"/>
      <polyline class="cls-4" points="495.5 525.5 541.5 546.5 565.4 546.5 565.4 518.4 553.7 518.4 549.5 514.5 576.5 487.5 588.6 487.5 588.6 490.2 577.5 490.5 562.5 505.5 585.5 506.5 585.5 509.5 559.5 507.5 554.5 513.5 555.5 514.5 596.6 517 598.5 478.5 560.5 466.5"/>
      <polyline class="cls-4" points="563.5 463.5 598.5 475.5 598.5 430.5"/>
      <polygon class="cls-4" points="568.5 518.5 569.5 545.5 596.2 545.5 596.2 520.1 568.5 518.5"/>
      <polyline class="cls-4" points="597.5 592.5 596.2 587.5 596.2 577.5 569.5 576.5 569.5 565.5 573.5 565.4 573.5 573.5 596.2 574.5 596.2 549.5 542.5 549.5 513.5 575.5 573.5 611.5"/>
      <path class="cls-4" d="M513.5,574.5"/>
      <path class="cls-4" d="M510.5,578.5l-20,17,56,46,25-24s-3-1-2-4l-59-35Z"/>
      <polygon class="cls-4" points="543.5 643.5 490.5 598.9 504.3 662.5 543.5 643.5"/>
      <path class="cls-4" d="M577.5,618.5l14,13-38,118-80-45,30-37,45-23,4.6-3,20.4-22.5s1,1.5,4-.5Z"/>
      <polyline class="cls-4" points="598.5 630.5 592.5 654.5 641.5 668.5 653.5 648.5 656.3 649.5 634.5 688.5 631.5 687.5 640.5 671.5 614.5 664.5 611.5 676.5 607.5 675.5 611.5 663.5 591.5 657.6 558.5 752.5 612.5 782.5 696.5 668.5 617.5 615.5"/>
      <polyline class="cls-4" points="620.5 612.5 700.5 666.5 722.5 642.5 706.5 631.5 708.5 628.5 724.5 640.5 744.5 617.5"/>
      <polyline class="cls-4" points="705.5 591.5 686.5 610.5 689.5 612.5 708.5 593.5"/>
      <line class="cls-4" x1="614.5" y1="593.5" x2="770.5" y2="469.5"/>
      <polyline class="cls-4" points="620.5 597.5 627.5 592.5 642.5 604.5 649.5 599.5 646.5 597.5 642.5 600.5 630.5 590.5 775.5 472.5"/>
      <polyline class="cls-4" points="603.5 507.5 601 584.2 602.5 587.5 603.5 588.5"/>
      <path class="cls-4" d="M597.9,599.8s7.1,3.5,4.3,10.1l-8.7,9.6"/>
      <polyline class="cls-4" points="604.5 595.6 606.5 600.5 610 598.1"/>
      <polyline class="cls-4" points="615.5 602.5 611.5 605.5 615.5 607.7"/>
      <polyline class="cls-4" points="612.5 610.5 608.5 608.5 598.5 622.5"/>
      <polyline class="cls-4" points="749.5 619.5 726.5 643.5 783.5 683.5"/>
      <polyline class="cls-4" points="781.5 685.5 724.5 646.5 703.5 667.5 763.5 708.5"/>
      <polygon class="cls-4" points="699.5 670.5 755.8 709.3 720.5 750.5 664.5 717.5 699.5 670.5"/>
      <polyline class="cls-4" points="759.5 712.5 757.5 711.5 677.5 811.5 691.5 823.5"/>
      <polygon class="cls-4" points="662.5 720.5 718.5 753.5 671.5 810.5 615.5 783.5 662.5 720.5"/>
      <polyline class="cls-4" points="661.5 842.5 671.4 823.5 682.5 831.5"/>
      <polygon class="cls-4" points="667.5 821.5 641.5 866.5 538.4 821.5 575.5 770.5 667.5 821.5"/>
      <polygon class="cls-4" points="494.5 724.5 456.5 773 534.8 818.5 571.5 768.5 494.5 724.5"/>
      <polygon class="cls-4" points="460.5 705.5 423.5 754.5 452.6 771.5 491.5 722.5 460.5 705.5"/>
      <polyline class="cls-4" points="619.5 861.5 615.5 860.5 608.5 869.5"/>
      <polyline class="cls-4" points="463 923.9 535.5 823.5 611.5 859.5 591.5 887.5 582.5 882.5 580.5 884.5 590.5 890.5 576.5 909.5"/>
      <polyline class="cls-4" points="319.6 550.4 334.5 559.5 349.5 566.5 371.7 588.1 374.5 586.5 352.5 564.5 337.5 557.5 322 548.3"/>
      <polyline class="cls-4" points="334.5 597.5 355.5 584.5 357.5 586.5 337.5 600.5"/>
      <path class="cls-1" d="M646.3,881.5l-144.8,253,35.8,25.1s3.5-8.9,15.4,0c0,0,21.9,11.9,24.9,18.9l-3.6,5.8,37.6,21.8,153-293.7s-18-14-5-31l-71.9-39.9-3.1,4.9-18,3-20.2,32Z"/>
      <path class="cls-1" d="M772.5,864.5s7.5-15.5,23.5-11.5l71-95,1.6-164.5-54.1,63-116,145,5.5,15-3.5,6,72,42Z"/>
      <polyline class="cls-4" points="868.6 773.6 825 831 813 839 802 854 789 878 769.6 868.3"/>
      <polyline class="cls-4" points="868.6 784.9 846.5 813.5 865.5 827.5 868.6 823.5"/>
      <polyline class="cls-4" points="868.6 834.8 844.5 816.5 828.5 838.5 823.5 849.5 819.1 857.4 868.6 878"/>
      <polyline class="cls-4" points="868.6 884.3 815.6 864.5 803.5 887.5 823.5 899.5 828.5 904.5 868.6 927.9"/>
      <polyline class="cls-4" points="868.6 935.6 822.5 908.5 796.5 898.5 781.5 923.5 852.5 981.5 868.6 956.8"/>
      <polyline class="cls-4" points="868.6 963.5 855.5 983.5 868.6 995.6"/>
      <polyline class="cls-4" points="868.6 998.6 853.5 987.5 811.5 1065.5 848.5 1089.5 868.6 1053.2"/>
      <polyline class="cls-4" points="868.6 1072.3 855.5 1093.4 868.6 1100"/>
      <polygon class="cls-4" points="778.3 927.9 850.5 986.3 825 1025.7 787.5 1010.5 794.5 999.5 806.5 1002.5 818.5 983.5 814.4 981.5 804.5 997.5 790.5 992.5 783.5 1007.5 773.5 1005.5 760.5 1027.5 765.5 1028.5 776.5 1009.5 820.5 1030.5 800.5 1068.5 776.5 1060.5 773.5 1064.5 796.5 1076.5 775.5 1109.5 699.5 1074.5 719.5 1036.5 735.5 1043.5 737.4 1038.5 721.5 1032.5 753.5 968.5 777.5 978.5 775 984.2 777.5 985.5 786.5 969.5 783.5 967.5 779.5 973.5 755.6 963.5 770.5 934.5 778.3 927.9"/>
      <path class="cls-4" d="M764.5,878l17,11.7-17,32.5v7.8l-135,260.6s-23,20-23,25l-16,9-32-21,15-26-3-1-15,24-25-15,11-18,6-4-2-3-8,5-10,18-35-24-28.5-27.6,6.5-9.4,3,1-4,6,11,7,2-1,4,2,2-2-7-4-2,2-6-4,5-8-6-3,10-13,18,8,1-2.5-17-9.5,68-113-21-16"/>
      <polyline class="cls-4" points="514.5 953.5 520.5 947.5 517.5 945 510.6 952.3"/>
      <polygon class="cls-4" points="456.5 933.5 546.5 989.5 538.4 1003.1 520.5 993.3 519.5 996.5 537.3 1007 507.5 1056.5 471.5 1035.5 474.5 1027.5 501.5 995 499.5 990.5 470.5 1025.5 468.5 1031.5 410.5 993.5 456.5 933.5"/>
      <polygon class="cls-4" points="461.5 1128.5 505.5 1060.5 462.5 1033.5 424.5 1088.5 461.5 1128.5"/>
      <polygon class="cls-4" points="421.5 1085.5 459.5 1031.5 407.5 996.5 379.5 1016.5 421.5 1085.5"/>
      <path class="cls-4" d="M455.5,929.5l-48,63-31,21s-29.7-31-50.9-41c0,0-23.1-24-30.1-24"/>
      <polyline class="cls-4" points="319.9 921.5 331.5 928.5 328.5 932.2 332.4 933.5 338.1 927.5 322.2 916.3"/>
      <polyline class="cls-4" points="290.5 952.5 293.5 960.5 242.5 954.5"/>
      <path class="cls-4" d="M297.1,952.5l3.4,9.6,10.8,4s-11.7-13.6-14.2-13.6Z"/>
      <polyline class="cls-4" points="225.5 952.5 176.2 952.5 204.5 906"/>
      <polyline class="cls-4" points="199.5 903.5 173.5 947.5 115.5 940.5 143.1 869"/>
      <path class="cls-4" d="M137.9,867l-26.4,72.5s-26-5-29,2l-37-5,22.9-110"/>
      <path class="cls-4" d="M64.1,825.1l-21.6,111.4s-30-15-31-20l15-64-8-33.8"/>
      <polyline class="cls-4" points="14.5 820.1 22.5 853.5 8.5 914.5 0 906.8"/>
      <line class="cls-4" x1="11.2" y1="820.9" y2="824.9"/>
      <line class="cls-4" x1="4.5" y1="819.5" y2="820.1"/>
      <path class="cls-4" d="M11.2,927.4s21.3,18.1,30.3,18.1v-2.7s-31.5-12.6-30.3-15.4Z"/>
      <polygon class="cls-4" points="46.5 943.5 46.5 946.6 109.8 952.5 46.5 943.5"/>
      <path class="cls-4" d="M86.9,943.5l81.5,9s-89.1-18-81.5-9Z"/>
      <path class="cls-4" d="M0,926.3s24.1,22.1,39.5,25.7,2,.4,3,.5l-16.1,30.3-7.9,5.7-18.5,27.5"/>
      <path class="cls-4" d="M0,1023.4l21.2-32.8,8.3-5.1,14-23,3-10,56,7-37,91s-4,4-11,3l-54.5-25.4"/>
      <path class="cls-4" d="M107.5,959.5l-37,90,55,8s41-91,38-93l-56-5Z"/>
      <polygon class="cls-4" points="167.5 965.5 130.5 1059.5 142.5 1061.5 173.5 1072.5 201.5 1016.5 197.5 1014.5 199.5 1011.5 202.9 1013.5 223.5 970.5 167.5 965.5"/>
      <polygon class="cls-4" points="231.7 971.5 213.5 1009.5 278.5 1033.5 304.2 980.7 284.5 975.5 231.7 971.5"/>
      <polygon class="cls-4" points="211.8 1013.5 180.5 1074.5 236.5 1095.5 252.5 1077.5 276.5 1036.5 211.8 1013.5"/>
      <path class="cls-4" d="M308.5,982.5l-51,96,30,14,71.1-73.5s-23.1-23.5-50.1-36.5Z"/>
      <polygon class="cls-4" points="225.5 963.5 225.5 959.3 189.1 959.5 225.5 963.5"/>
      <path class="cls-4" d="M234.2,960.5v3s61.3,5,66.3,9l-1-4s-20.6-7-65.3-8Z"/>
      <path class="cls-4" d="M304.9,971.5v2.9s26.6,6.1,61.6,42.1l3-2s-40.2-41-64.6-43Z"/>
      <polygon class="cls-4" points="372.5 1018.5 369.5 1020.4 375.5 1026.7 372.5 1018.5"/>
      <polygon class="cls-4" points="361.4 1022.6 289.4 1095.5 267.5 1087.5 260.5 1098.5 265.3 1098.5 281.5 1105.5 285.5 1113.5 300.5 1119.5 300.5 1123.5 310.9 1128.5 315.5 1119.5 318.5 1120.5 312.5 1134.5 320.5 1135.5 335.5 1141.5 374.5 1051.5 379.5 1046.8 361.4 1022.6"/>
      <polygon class="cls-4" points="379.5 1050 375.5 1059.7 382.5 1053.5 379.5 1050"/>
      <polygon class="cls-4" points="383.8 1056.5 372.5 1067.4 350.5 1118.5 423.5 1144.5 434.3 1121.7 403.5 1086.5 383.8 1056.5"/>
      <polygon class="cls-4" points="348.5 1122.5 342.5 1136.5 416.5 1163.5 421.5 1148.5 348.5 1122.5"/>
      <polygon class="cls-4" points="340.5 1139.5 321.5 1180.5 329.5 1193.5 329.5 1198.5 405.5 1190.5 415.5 1166.5 340.5 1139.5"/>
      <polygon class="cls-4" points="437.5 1124.5 410.5 1189.5 457.5 1184.5 473.5 1179.5 485.5 1179.5 437.5 1124.5"/>
      <polygon class="cls-4" points="495.5 1178.5 505.5 1178.5 490.5 1168.5 470.5 1148.5 495.5 1178.5"/>
      <polygon class="cls-4" points="555.5 1218.5 574.1 1224.5 587.6 1233 549.5 1206.2 535.5 1203.5 514.8 1189.5 505.5 1186.3 516.5 1192.5 555.5 1218.5"/>
      <polygon class="cls-4" points="600.5 1230.5 607.5 1234.5 617.5 1213.5 610.5 1222.5 600.5 1230.5"/>
      <polygon class="cls-4" points="604.5 1244.5 604.5 1249.7 598.5 1245.5 604.5 1244.5"/>
      <polygon class="cls-4" points="613.4 1247.1 613.5 1255.5 719.5 1321.5 735.5 1336.5 750.5 1351.5 754.5 1347.5 722.5 1317.5 613.4 1247.1"/>
      <polygon class="cls-4" points="645.4 1178.5 615.5 1239.5 668.5 1274.5 707.7 1209.6 713.5 1200.5 645.4 1178.5"/>
      <polygon class="cls-4" points="678.5 1264.5 672.5 1276.5 700.5 1292.5 704.5 1288.5 689.5 1276.5 682.5 1266.5 678.5 1264.5"/>
      <path class="cls-4" d="M758.5,1340.5s-44-43.1-54-43.5l4-10.5-15.5-12-7.5-12-4-1,30-52,8.5-7.3,69.5,42.3-31,96Z"/>
      <path class="cls-4" d="M752.5,1149.5l-31,48s66,44,70,42l19-55-58-35Z"/>
      <polygon class="cls-4" points="812.2 1178.5 754.5 1146.6 806.9 1072.3 845.5 1096.5 812.2 1178.5"/>
      <polygon class="cls-4" points="716.5 1196.5 735.5 1168.6 722.5 1160.5 721.5 1156.6 709.4 1149.5 706.5 1151.5 700.5 1150.5 692.5 1168.5 681.5 1164.1 675.5 1182.5 716.5 1196.5"/>
      <polygon class="cls-4" points="697.5 1147.5 690.5 1162.5 682.5 1160.5 690 1144.8 697.5 1147.5"/>
      <polygon class="cls-4" points="670.5 1181.5 646.7 1173 697.5 1078.1 771.5 1113.5 736.5 1164.5 725.5 1158.5 722.5 1151.5 707.9 1144.8 705.5 1147.7 701.5 1147.5 700.5 1142.5 690 1139.9 686.5 1141.5 670.5 1181.5"/>
      <polyline class="cls-4" points="744.5 1358.5 729.4 1340.5 716.5 1330.5 670.5 1300.5 666.5 1313.5 661.5 1386.5 713.5 1394 715.5 1377.5 713.5 1373.7 683.9 1368.8 688.5 1338.3 691.5 1338.5 688.5 1365.6 711.5 1369.5 711.5 1365.5 703 1353.1 707.1 1351.5 716.5 1363.5 716.5 1370.5 719.5 1378.5 717.8 1394 735.5 1397.5"/>
      <polyline class="cls-4" points="603.6 1465.5 623.5 1294.5 627.6 1294.5 618.5 1382.5 624.5 1382.5 630.5 1320.5 635.5 1321.5 628.5 1382.5 646.5 1385.5 646.5 1381.5 657.5 1384.5 662.5 1311.5 667.6 1299.3 609.5 1261.5 585.5 1465.5"/>
      <path class="cls-3" d="M588.5,1308.5"/>
      <path class="cls-1" d="M434.3,1468.9l9.2-59.9,27-197.7s5-11.8,45,5.2l73,48s8,8,2,28l-12.6,116.5-8.1,59.9h-135.5Z"/>
      <polyline class="cls-4" points="580.4 1465.5 606 1259 501.5 1192.4 438 1195 438 1205.1 368.5 1318 426.3 1328.9 425.5 1332.5 366.5 1321.5 354.5 1368.5 418.5 1376.5 418.5 1380.5 354.5 1372.4 354.5 1420 412.5 1428.5 411.5 1432.5 354.5 1425.1 353.5 1444.5 348.5 1467.5"/>
      <polygon class="cls-4" points="344.5 1465.5 349.5 1444.5 348.5 1397.6 333.5 1390.5 328.5 1406.5 324.5 1405.5 329.5 1389.5 269.5 1364.5 247.5 1417.5 254.5 1423.5 258.5 1416.5 271.4 1415 305.5 1430.5 310.5 1437.5 306.5 1450.5 344.5 1465.5"/>
      <polygon class="cls-4" points="302.5 1448.5 305.5 1438.5 302.5 1433.7 269.5 1418.5 262.5 1420.5 257.5 1426.5 264.3 1433.5 302.5 1448.5"/>
      <polygon class="cls-4" points="322.8 1467.5 295.5 1455.5 291 1467.5 322.8 1467.5"/>
      <polygon class="cls-4" points="286.7 1467.5 291 1454 257.5 1440.1 243.5 1425.5 225.9 1467.5 286.7 1467.5"/>
      <polygon class="cls-4" points="232.5 1435.5 238.5 1421.5 218.5 1413.5 211.5 1427.5 232.5 1435.5"/>
      <polygon class="cls-4" points="220.5 1467.5 231.5 1440.5 205.5 1429.5 214.5 1410.5 195.5 1402.5 166.6 1467.5 220.5 1467.5"/>
      <polygon class="cls-4" points="162.3 1467.5 192.5 1400.5 156.5 1384.5 122.4 1467.5 162.3 1467.5"/>
      <polygon class="cls-4" points="118.5 1463.5 152.5 1383.5 106.5 1362.5 71.3 1446.5 76.4 1446.5 118.5 1463.5"/>
      <polygon class="cls-4" points="111.9 1466.5 75.5 1450.5 69.2 1450.5 63.5 1466.5 111.9 1466.5"/>
      <polygon class="cls-4" points="65.5 1341.5 61.5 1340.5 59.5 1326.5 49.5 1347.5 65.5 1341.5"/>
      <polygon class="cls-4" points="66.5 1444.5 102.5 1360.5 68.5 1345.5 47.5 1352.5 12.5 1423.5 59.5 1443.5 66.5 1444.5"/>
      <polygon class="cls-4" points="57.5 1466.5 65.5 1448.7 61.5 1448.7 9.5 1427.5 0 1448.7 0 1466.5 57.5 1466.5"/>
      <polygon class="cls-4" points="0 1427.5 18.5 1389.5 14.5 1387.5 0 1389.5 0 1427.5"/>
      <polygon class="cls-4" points="0 1384.5 15.5 1383.5 20.9 1384.5 55.5 1314.5 53.5 1311.5 0 1290.5 0 1384.5"/>
      <polygon class="cls-4" points="9.5 1215.5 0 1233.1 0 1281.4 59.5 1306.5 89.5 1245.5 9.5 1215.5"/>
      <polygon class="cls-4" points="43.5 1148.5 11.5 1211.5 90.5 1240.5 120.5 1179.5 43.5 1148.5"/>
      <polygon class="cls-4" points="0 1222.4 39.7 1148.5 0 1132.4 0 1222.4"/>
      <polygon class="cls-4" points="122.5 1175.5 142.5 1134.5 36.5 1094.5 0 1077.7 0 1126.6 122.5 1175.5"/>
      <polygon class="cls-4" points="146.3 1126.6 171.5 1075.5 139.5 1064.5 68.5 1052.5 66 1054.5 54.5 1057.5 0 1033.5 0 1069.3 47.5 1090.5 61.5 1094.5 72.5 1069.5 75.5 1070.5 66 1095.5 146.3 1126.6"/>
      <polygon class="cls-4" points="179.3 1077.7 154.5 1130.5 211.5 1153.5 235.5 1109.5 235.5 1099.8 179.3 1077.7"/>
      <polygon class="cls-4" points="317.5 1179.5 333.7 1144.5 318.7 1139.5 308.1 1138.2 308.1 1135.4 309.5 1130.5 299.6 1126.6 295.5 1136.5 291.5 1135.5 296.6 1124.5 296.6 1122.5 282.8 1115.6 279.5 1108.5 267.5 1103.5 257.5 1103.5 254.6 1100.5 263.3 1085.5 254.6 1082.1 240.5 1098.5 240.5 1110.5 215.5 1155.5 299.1 1189.5 302.5 1185.5 317.5 1179.5"/>
      <polygon class="cls-4" points="317.5 1184.5 306.5 1188.5 303.9 1192.4 325.6 1198.5 325.6 1193.6 317.5 1184.5"/>
      <polygon class="cls-4" points="432.5 1195.5 432.5 1203.3 362.5 1318.5 355.5 1343.5 282.5 1312.5 327.8 1207.3 340.6 1206.2 432.5 1195.5"/>
      <polygon class="cls-4" points="323.5 1206.5 278.5 1311.5 253.5 1301.5 299.1 1198.5 318.5 1205.5 323.5 1206.5"/>
      <polygon class="cls-4" points="249.5 1299.5 295.5 1197.5 150.5 1137.5 109.5 1222.5 192.5 1253.5 222.6 1189.5 225.6 1191.5 187.5 1275.5 249.5 1299.5"/>
      <polygon class="cls-4" points="268.5 1358.5 270.5 1352.5 266.5 1345.5 274.5 1326.5 274.5 1320.8 276.5 1315.5 251.5 1305.5 232.5 1343.5 268.5 1358.5"/>
      <polygon class="cls-4" points="349.5 1393 349.5 1368.9 353.5 1348.5 281.5 1317.2 279.5 1321.5 279.5 1325.9 271.5 1345.5 276.5 1352.8 272.5 1360.5 349.5 1393"/>
      <polygon class="cls-4" points="243.4 1415 265.5 1362.5 221.6 1343.5 199.1 1394.8 243.4 1415"/>
      <polygon class="cls-4" points="228.5 1340.5 247.5 1303.8 186.5 1279.5 169.4 1317.2 228.5 1340.5"/>
      <polygon class="cls-4" points="195.6 1393 217.7 1340.5 79.5 1285.5 65.5 1311.5 71.3 1335.5 77.6 1340.5 195.6 1393"/>
      <polygon class="cls-4" points="165.5 1315.5 190.5 1257.5 107.5 1226.5 80.5 1281.5 165.5 1315.5"/>
      <polyline class="cls-4" points="55 758.3 0 724.9 0 721.2 5.5 724.5 25.5 702.5 27.5 704.4 8.5 726.5 57.5 754.5"/>
      <polyline class="cls-4" points="199.5 792.5 210.5 779.5 219.2 784.1 220.5 781.5 209.4 775.2 196.5 790.5"/>
      <polyline class="cls-4" points="283.5 721.5 275.3 719.5 22.5 570.5 19.1 570.5 0 591.6 0 582 14.5 566.5 0 550.8 0 544.8 16.5 563.5 34.5 544.5 0 505.4 0 498.6 36.5 541.5 59.5 517.5 48.5 507.5 0 453.5 0 446.4 50.5 505.5 61.5 515.5 84.5 489.5 0 404.4"/>
      <polyline class="cls-4" points="160.5 436.7 149.5 426.5 22.5 567.5 26 567.5 276.5 715.5 285.5 717.6"/>
      <path class="cls-4" d="M86.5,486.5l-28-29,42-25-3-1-42,25L3.5,402.5l26-15,40,38-3,2,2,2,4-2,3,3,6.9-4,6.1,6,4-2-1-3-3,2-6-7-5.7,4-19.3-18,40-35,40,41s-9,7,0,15.5l-51,56.5Z"/>
      <path class="cls-4" d="M139.5,416.5l6,6-6,5.9s-8-3.9,0-11.9Z"/>
      <polygon class="cls-4" points="95.5 371.5 54.5 406.5 32.5 385.5 79.5 356.5 95.5 371.5"/>
      <polyline class="cls-4" points="0 362.8 26.5 385.5 0 400.3"/>
      <polygon class="cls-4" points="11.5 367.5 30.5 383.5 76.5 354.5 61.5 339.5 11.5 367.5"/>
      <polyline class="cls-4" points="0 357.3 8.5 365.5 58.5 337.5 29.2 308.1 0 338.5"/>
      <polyline class="cls-4" points="0 334.1 26.5 305.2 18.5 297.5 0 307.3"/>
      <polyline class="cls-4" points="0 303.7 15.5 294.5 0 279.3"/>
      <polygon class="cls-4" points="34.5 244.5 4.5 274.5 31.5 301.5 70.5 278.5 34.5 244.5"/>
      <polygon class="cls-4" points="58.5 216.5 37.5 241.6 72.5 277.5 103.5 259.5 58.5 216.5"/>
      <polygon class="cls-4" points="105.5 261.5 34 303.7 51.5 321.5 122.4 277.5 105.5 261.5"/>
      <polygon class="cls-4" points="175.5 211.5 117.5 269.5 59.5 213.5 99.5 174.5 175.5 211.5"/>
      <polygon class="cls-4" points="120.5 271.5 150.5 296.5 214.5 229.5 178.5 211.5 120.5 271.5"/>
      <polygon class="cls-4" points="118.5 334.5 149.5 299.5 125.5 279.5 54.5 323.5 91.5 359.5 116.1 336.8 92.5 323.5 95.5 320.5 118.5 334.5"/>
      <path class="cls-4" d="M157.5,409.5l68-72-41-20-26,25-3-1,25-26-23-13,1-2,68.5,35,24.5-26-72-38-51.4,57.5-32.6,30.5-2,2,23,22,23-23,2.2,2-23.2,23,24,24s13-4,15,0Z"/>
      <path class="cls-4" d="M155.5,411.5l-6,5.8-4-5s5-3.8,10-.8Z"/>
      <polygon class="cls-4" points="218.2 254 197.5 277.5 181.8 269.5 202.5 246.5 218.2 254"/>
      <polygon class="cls-4" points="221.5 255.5 200 278.6 217.5 287.5 238.5 264.5 221.5 255.5"/>
      <polygon class="cls-4" points="241.5 265.5 221.5 289.5 253.5 305.5 272.5 282.5 241.5 265.5"/>
      <polygon class="cls-4" points="275.7 279.5 290.5 264.5 219.2 231.6 207.5 243.5 275.7 279.5"/>
      <polygon class="cls-4" points="249 210.3 225.5 225.5 294.5 260.5 307.5 245.5 249 210.3"/>
      <path class="cls-4" d="M284.5,199.5s-32,5-32,9l57,34,12-13-34-22-3-8Z"/>
      <polygon class="cls-4" points="288.1 199.5 290.5 206.1 323.5 227.5 348.9 199.5 325.5 177.5 296.5 197.5 288.1 199.5"/>
      <path class="cls-4" d="M322.5,176.5l-27,19s-38,4-47,11l-26,17-40-16,84-55.6,6,4.6,10,1,15,14,.4,3-14.4,9,2,2,15-10v-4l-16-16-11-1-5-5,18.5-10.1,35.5,37.1Z"/>
      <polygon class="cls-4" points="249.5 101.5 284.5 136.5 203.5 190.5 167.5 158.6 249.5 101.5"/>
      <polygon class="cls-4" points="230.5 86.5 247.5 99.5 164.5 156.5 144.5 144.5 176.5 123.5 182.5 122.4 200.5 109.5 203.5 104.5 230.5 86.5"/>
      <polygon class="cls-4" points="227.5 84.5 199.5 103.5 198.5 107.5 193.5 110.5 168.5 91.5 203.5 67.5 227.5 84.5"/>
      <polygon class="cls-4" points="165.5 93.5 190.5 112.5 187.5 116.5 160.5 96.5 165.5 93.5"/>
      <polygon class="cls-4" points="157.5 98.5 183.5 117.5 179.5 119.5 174.7 119.5 141.5 143.5 111.5 129.5 157.5 98.5"/>
      <polygon class="cls-4" points="201.5 66.5 109.5 128.5 91.9 121 95.5 117.5 93.4 116.5 89.5 119.5 53.5 102.5 159.5 35.5 183.5 52 142.5 79.5 145.5 80.5 185.5 54.5 201.5 66.5"/>
      <polygon class="cls-4" points="178.5 205.5 182.5 201.3 199.5 191.5 164.5 160.5 146.5 172.5 144.5 170.1 161.5 158.5 137.5 144.5 108.5 130.5 72.7 156.5 178.5 205.5"/>
      <polygon class="cls-4" points="104.7 130.5 70.5 155.1 43.5 144.5 53.5 134.8 78.5 117.5 104.7 130.5"/>
      <polygon class="cls-4" points="75.2 116.5 48.5 133.5 41.5 141.5 .5 131.5 5.5 126.5 50.1 105 75.2 116.5"/>
      <polygon class="cls-4" points="58 211.5 94.5 172.5 67.5 160.5 36.5 191.5 58 211.5"/>
      <polyline class="cls-4" points="0 228.9 34 193.8 55.5 213.5 53.5 218.5 2 273 0 271.5"/>
      <polyline class="cls-4" points="0 224.3 64.5 158.5 38.5 147.5 10.1 174.5 14.5 177.5 22.5 170.5 24.5 172.5 15.5 180.5 6.5 176.5 .5 183.1"/>
      <polyline class="cls-4" points=".5 179.3 36.5 146.3 0 137.3"/>
      <polyline class="cls-4" points=".5 124.5 24.5 113.5 0 95.1"/>
      <polygon class="cls-4" points="62.5 52.5 0 91.1 26.5 111.5 49.5 100.5 91.5 73.5 62.5 52.5"/>
      <polygon class="cls-4" points="125.5 11.5 65.5 51.5 93.5 71.5 154.5 32.5 125.5 11.5"/>
      <polyline class="cls-4" points="111.5 .5 123.5 9.5 0 88.3"/>
      <polyline class="cls-4" points="120.1 .5 127.5 6.8 137.5 .5"/>
      <polyline class="cls-4" points="142.1 .5 130.5 8.5 143.5 18.5 161.3 6.8 162.5 8.5 146.5 19.5 181.5 45.5 213.5 24.5 245.5 47.5 269.5 30.5 270.5 13.5 224.5 13.5 224.5 10.5 270.5 10.8 271.5 .5"/>
      <polyline class="cls-4" points="170.1 .5 187.5 13.5 189.3 11.5 174.7 .5"/>
      <polygon class="cls-4" points="212.5 28.5 185 47.5 212.5 68.1 242.7 48.3 212.5 28.5"/>
      <polygon class="cls-4" points="261.9 105 253.5 97.5 215.5 69.5 272.5 31.5 283.5 31.5 283.5 28.5 273.2 28.5 273.5 25.5 283.5 25.5 283.5 22.5 273 22.5 274 13.5 340.5 14.5 338.5 30.5 323.5 29.5 323.5 31.5 337.5 33.5 329.5 96.5 332.6 101.5 336.5 103.5 316.7 116.5 288.5 94.5 285.5 97.5 314.5 118.5 295.5 133.5 264.5 107.5 275.5 99.5 274.5 95.5 288 86.5 285.5 84.5 271.5 93.5 272.6 98.5 261.9 105"/>
      <polyline class="cls-4" points="275.3 .5 274.5 10.5 340.5 11.4 341.6 .5"/>
      <polyline class="cls-4" points="344.7 .5 343.3 11.4 437.1 13.5 441.8 7 431.5 .5"/>
      <polyline class="cls-4" points="435.9 .5 443.9 5.9 452.5 2.5 452.5 .5"/>
      <path class="cls-4" d="M455.3.5l.6,2.7-11.6,4.6-4.7,7.7-80.4-2,.4,10-3,2-1,9-16,1-7,61,2,3,5,3L472.5,18.5s-11.9-14-10-18"/>
      <path class="cls-4" d="M472.5.5s4,10,8,11c0,0,.9-5-2.1-11"/>
      <path class="cls-4" d="M480.6.5s4.7,6,2.8,13l20.1,10L524.8.5"/>
      <polygon class="cls-4" points="472.5 11.5 477.5 17.5 500.5 27.5 501.5 25.5 479.5 16.5 472.5 11.5"/>
      <path class="cls-4" d="M497.5,31.5l-47,51-12-5-2,3,12,5-35,38-7-4-2,3,7,4-25,27-7-4,19-19s3-4-2-7l-15-6,14-10v-5s-2-5-10-2l-43,28-20-11.8L474.6,19.5l22.9,12Z"/>
      <path class="cls-4" d="M345.5,129.5l40.9-27s5.1-3,6.6,0v4.2l-39.5,27.8-8-5Z"/>
      <polygon class="cls-4" points="365.5 129.5 355.5 136.5 376.5 148.5 384.5 141.5 365.5 129.5"/>
      <polygon class="cls-4" points="372.5 123.5 367.5 127.5 386.1 139 392.5 133.5 372.5 123.5"/>
      <path class="cls-4" d="M380,119.1l-4.5,2.4,17.5,9.2s5.5-3.2,2.5-5.2l-15.5-6.4Z"/>
      <polygon class="cls-4" points="355.5 190.5 384.5 156.4 340.5 129.5 315.5 151.5 313.5 148.5 337.5 128.5 319.7 119.1 296.5 136.5 340.5 180.6 355.5 190.5"/>
      <polygon class="cls-4" points="360.5 192.5 472.5 64.9 475.5 66.5 360.5 192.5"/>
      <polygon class="cls-4" points="474.5 62.5 476.6 64.9 504.5 34.5 501.5 32.7 474.5 62.5"/>
      <polygon class="cls-4" points="506.1 27.5 504.5 30.5 507.1 32.7 509.5 29.5 506.1 27.5"/>
      <polyline class="cls-4" points="530.5 .5 509.5 25.3 511.5 26.5 534.6 .5"/>
      <polyline class="cls-4" points="540.8 .5 515.5 29.5 548.5 44.5 566.5 49.5 612.5 52.5 614 .5"/>
      <polyline class="cls-4" points="620.3 .5 618.5 52.5 622 52.5 623.9 .5"/>
      <polyline class="cls-4" points="629.8 .5 622.5 221.5 704.5 167.5 868.6 286.8"/>
      <path class="cls-4" d="M703.5,168.5"/>
      <polygon class="cls-4" points="622.5 227.1 633.5 223.5 704.5 173.5 745.5 203.3 735.5 210.5 737.5 212.5 748.5 205.5 755.5 210.5 648.5 288.5 625.5 270.5 621.5 269.5 622.5 227.1"/>
      <polygon class="cls-4" points="730.5 232.5 651.5 289.5 684.5 316.5 764.5 256.5 730.5 232.5"/>
      <polygon class="cls-4" points="757.5 212.5 733.5 229.5 775.5 261.5 789.5 252.5 791.5 255.5 779.5 263.5 782.5 266.5 806.5 247.5 757.5 212.5"/>
      <polygon class="cls-4" points="809.5 250.5 785.5 268.5 832.5 302.5 834.5 300.5 836.9 302.5 835.5 304.5 842.5 309.5 867.5 291.5 809.5 250.5"/>
      <polyline class="cls-4" points="868.6 293.9 845.5 311.5 868.6 328.2"/>
      <polygon class="cls-4" points="767.5 258.5 692.5 313.5 757.5 363.5 754.5 364.5 690.5 315.5 686.5 318.5 814.5 413.5 848.5 386.5 804.5 353.5 799.5 356.5 792.5 351.5 804.5 342.5 810.5 347.5 806.5 351.5 810.5 355.5 853.5 321.5 842.5 313.5 834.5 319.5 825.5 312.5 820.5 316.5 817.5 314.5 821.9 311 781.5 281.5 773.5 278.5 771.3 274.5 780.5 268.5 767.5 258.5"/>
      <polygon class="cls-4" points="782.5 270.5 775.8 274.5 775.8 276.7 785.5 280 823.5 308.5 830.5 304.5 782.5 270.5"/>
      <polygon class="cls-4" points="832.5 306.5 827.3 311 834.5 316.5 840.6 311.5 834 306.5 832.5 306.5"/>
      <polygon class="cls-4" points="804.5 346.5 797.5 350.5 799.5 353.5 806.5 348.5 804.5 346.5"/>
      <polyline class="cls-4" points="868.6 331.6 856.5 323.5 815.5 356.5 851.5 384.5 868.6 370.5"/>
      <polyline class="cls-4" points="868.6 374.5 855.5 385.5 861.5 389.5 868.6 382"/>
      <polyline class="cls-4" points="868.6 386.5 864.5 390.5 865.5 392.5 868.6 389.5"/>
      <polygon class="cls-4" points="858.5 390.2 853.5 386.5 852.5 387.5 857 391.1 858.5 390.2"/>
      <polygon class="cls-4" points="862.5 393.5 860.8 392.5 859.6 393 861 394.4 862.5 393.5"/>
      <polygon class="cls-4" points="859.6 396.3 857.5 395.5 825.5 419.5 826.5 421.5 859.6 396.3"/>
      <polygon class="cls-4" points="855.5 392.5 850.5 388.8 818.5 415.5 822.5 418.5 855.5 392.5"/>
      <polyline class="cls-4" points="868.6 400.7 847.5 415.5 862 427.5 854.5 434.5 864.5 441.9 868.6 439"/>
      <polyline class="cls-4" points="868.6 423.7 855.5 413.5 858 411.4 868.6 419.7"/>
      <polyline class="cls-4" points="868.6 443.9 866.5 445.8 850.5 433.9 858 427.7 845.2 418.5 816.7 441.9 804.5 455.5 868.6 501.3"/>
      <polyline class="cls-4" points="868.6 508 799.5 462.5 796.5 460.5 794.5 462.5 868.6 512.2"/>
      <line class="cls-4" x1="868.6" y1="519.2" x2="858.5" y2="512.5"/>
      <polyline class="cls-4" points="848.5 503.5 789.5 465.5 782.5 470.5"/>
      <polyline class="cls-4" points="830.5 520.5 810.5 505.5 820.5 494.6 795.5 477.5 784.5 485.5 785.5 490.5 805.5 505.5 784.5 528.1 787.5 529.5 808.5 508.5 816.5 514.5 804.5 526.4 815.5 535.5"/>
      <polyline class="cls-4" points="817.5 533.5 809.5 526.5 819.5 516.5 827.5 522.5"/>
      <polygon class="cls-4" points="807.5 502.7 816.5 494.5 795.5 481.5 788.9 486.4 788.9 490 807.5 502.7"/>
      <polyline class="cls-4" points="795.5 555.5 768.5 536.5 763.5 537.5 760.1 535.5 758.3 538.5 764.5 541.5 769.5 541.5 793.5 558.5"/>
      <path class="cls-4" d="M787.5,563.5l-12-8.5-3.2,3.5-22.8-16s-19-9-30,1l-8-6.7"/>
      <path class="cls-4" d="M708.5,539.5l8,6s-12,13,5,28l32.9,25.9"/>
      <path class="cls-4" d="M749.5,546.1s-21-9.6-28,.4c0,0-10,7-3,18l5,6,13-11-10-7,2.4-2.4,9.6,7.4,11-11.4Z"/>
      <polygon class="cls-4" points="752.5 548.5 725.5 573.5 743.5 587.5 770.5 560.4 752.5 548.5"/>
      <polyline class="cls-4" points="785.5 566.5 776.5 560.5 746.5 589.5 755.5 596.5"/>
      <polyline class="cls-4" points="811.3 562 819.5 567.5 827.5 568.9 828.1 565.4 819.7 564.7 814.3 560.5"/>
      <polyline class="cls-4" points="827.5 545.9 857.5 566.5 854.5 568.5 858.5 570.9 861.5 566.5 829.5 544.5"/>
      <line class="cls-4" x1="830.5" y1="543" x2="867.6" y2="568.9"/>
      <line class="cls-4" x1="831.8" y1="540.5" x2="868.6" y2="565.8"/>
      <polyline class="cls-4" points="868.6 527.1 855.8 538.5 859.5 540.5 868.6 532.7"/>
      <polyline class="cls-4" points="581 437.1 578.5 434.5 574.3 434.5 575.5 400.5 594.5 401.5"/>
      <polyline class="cls-4" points="594.5 397.9 575.5 397.5 576.5 361.5 542.5 360.5 542.5 343.6 545.5 339.5 541.5 337.5 538.5 342.5 538.5 360 506.5 358.5 506.5 349.6 501.5 349.5 497.5 442.5 435.5 438.5 435.5 442.5 476.5 444.5 473.5 484.5"/>
      <polyline class="cls-4" points="478.1 484.5 480.5 444.5 496.5 445.5 495.5 469.1 501.5 474.5 501.5 489.5 505.1 489.5 506.5 450.5 521.5 450.5 521.5 433.9 573.8 437.1 577.5 439.5"/>
      <polygon class="cls-4" points="499.5 450.5 498.5 468.5 501.5 471.5 502.9 450.5 499.5 450.5"/>
      <polygon class="cls-4" points="500.7 441.9 500.7 447.1 518 447.1 517.5 442.5 500.7 441.9"/>
      <polygon class="cls-4" points="501.5 432.5 500.7 438.6 518 439.3 518 433.9 501.5 432.5"/>
      <polygon class="cls-4" points="570 433.9 571.9 400.5 553.5 398.5 553.5 408.5 550.5 408.5 550.5 398.5 525.5 397.5 525.5 406.3 512.5 406.5 512.5 397.5 502.9 396 500.7 430.5 510 430.5 510.5 425.5 523.5 426.5 523.5 431.5 549 432.5 549.5 425.5 552.5 425.5 552.3 432.5 570 433.9"/>
      <rect class="cls-4" x="513.3" y="428.7" width="7.2" height="2.8"/>
      <polygon class="cls-4" points="522.5 397.5 522.5 404.2 515 404.2 516.1 397.5 522.5 397.5"/>
      <polygon class="cls-4" points="570.8 397.5 572.5 363.5 555.5 363.5 555.5 373.3 550.5 373.5 551.4 363.5 527.8 361.5 527.8 367.3 515 367.1 515 361.5 506.5 361.5 503.5 393.5 513.3 393.6 512.5 385.5 516.9 385.8 516.5 393.5 551 396 551.5 385.5 553.5 385.5 554.5 396.5 570.8 397.5"/>
      <rect class="cls-4" x="518" y="361.5" width="6.2" height="3.7"/>
      <path class="cls-4" d="M600,337v-10l-41.5-19.5s-2,6-5,5c0,0-92,35-101,43v13.1h-4.1v-10.5l-20.9,11.4,3,4,.3,22.5-3.3-.6v-20.7l-4-3.2-14.2,8,3.2,6-1.3,61.6h6.9l-1.4,24.4-9.9,7.7"/>
      <polyline class="cls-4" points="406.5 476.5 413.5 470.5 414.7 450.5 407.8 450.5 409.5 388.5 406.5 381.5 378.1 400.9 381.5 405.5 380.3 447.1 377.4 447.1 378.5 405.5 374.5 402.5 354.5 416.5 352.5 414.5 377.4 397.5 375.5 387.5 372.5 387.5 341.5 406.5 358.4 435.9 385.5 463.5 390.2 466.5 398.9 477.9"/>
      <polygon class="cls-4" points="378.5 386.5 380.3 396 417.5 371.5 416.5 365.5 378.5 386.5"/>
      <polygon class="cls-4" points="447.5 355.5 420.5 369.5 415.5 335.5 465.5 313.5 483.7 337.5 465.5 346.5 449 329 446.5 330.5 462.5 347.5 450.5 353.5 435.5 334.1 432.7 335.5 447.5 355.5"/>
      <polygon class="cls-4" points="412.2 337.5 415.5 363.5 378.5 383.8 370.5 348.5 412.2 337.5"/>
      <polygon class="cls-4" points="375.5 384.5 366.5 348.5 314 360.6 291.5 362.5 289.5 362.5 297.4 393.3 310.5 410.5 348.5 399.5 372.5 384.5 375.5 384.5"/>
      <polygon class="cls-4" points="329.5 430.5 345.5 420.5 337.5 405.6 312.5 412.5 329.5 430.5"/>
      <polyline class="cls-4" points="395.7 479.2 384.5 467.5 348.5 492.5 346.5 490.2 382.5 465.5 355.5 437.5 346.5 424.2 323.5 438.5 341.5 455.6 338.5 457.5 320.9 441 305.5 451.5 305.5 463.7 310.9 463.7 325.1 477.9 309.5 489.5 307.5 487.5 321.1 477.9 309.5 467.5 303.5 465.5 283.5 480.1 332.5 527.5"/>
      <path class="cls-4" d="M303.5,449.5l-3,2,1.5,12.6-20.8,13.9-13.7-12.4v-4.9l-36-35.1,11-7.5-2-4.5s18-5,2-17c0,0-8-1-10,2,0,0-8,3-4,10,0,0,2,6,8,6l1.6,3.5-9.6,5.5s-9-4-11-7l-24-25-6-4,23-25,8,5,34-2s14,47.1,19.5,52.5l15.5,19.5,16,12Z"/>
      <path class="cls-4" d="M295.5,396.5l-25.2,7.9s10.2,27.1,36.2,43.1l20-15-31-36Z"/>
      <polygon class="cls-4" points="294.5 393.5 292.5 387.5 262.9 390.5 268.5 402.5 294.5 393.5"/>
      <polygon class="cls-4" points="291.5 384.5 286.7 362.5 256.5 364.5 262.1 387.5 291.5 384.5"/>
      <polygon class="cls-4" points="213.5 359.5 256.5 313.2 269.5 319.5 269.5 336.4 252.5 355.5 252.4 362.5 220.5 364.5 213.5 359.5"/>
      <polygon class="cls-4" points="269.5 317.1 274 314 274 312 270.9 312 261.5 307.5 258.5 311.5 269.5 317.1"/>
      <polygon class="cls-4" points="256.5 361.8 256.5 355.9 272.5 337.5 272.5 318.1 277.5 314.5 277.5 312.3 300.5 311.5 300.5 308.5 272.5 309.8 264.5 305.5 296.5 266.5 321.5 277.5 317.5 280.5 312.5 310.5 357.5 311.5 365.5 346.5 313.5 357.5 256.5 361.8"/>
      <polygon class="cls-4" points="342.5 259.5 321.5 281.5 316.8 307.5 357.5 308.5 360.5 290.5 357.5 267.5 342.5 259.5"/>
      <polygon class="cls-4" points="299.5 263.5 322.5 275 376.5 218.5 356.5 204.5 344.5 212.5 299.5 263.5"/>
      <polygon class="cls-4" points="378.5 219.5 344.5 257.5 360.5 266.5 363.5 290.5 360.5 310.1 369.2 345.5 411.5 334.5 405.5 288.5 369.5 289.5 368.5 286.5 404.5 286.5 397.5 230.5 378.5 219.5"/>
      <polygon class="cls-4" points="401.5 232.5 408.5 285.5 468.5 271.5 472.5 268.5 401.5 232.5"/>
      <polygon class="cls-4" points="463.5 310.5 441.5 281.5 408.5 288.5 415.5 332.8 463.5 310.5"/>
      <polygon class="cls-4" points="475.5 270.5 471.5 273.5 445.5 280.5 466.5 308.5 514.5 287.5 475.5 270.5"/>
      <polygon class="cls-4" points="468.5 311.5 486.5 335.5 553.5 310.5 555.2 307.2 518 289.5 468.5 311.5"/>
      <path class="cls-4" d="M610.5,345.5l2.7-10s39.3,27,43.3,29l124,95.4-6.8,4.7"/>
      <path class="cls-4" d="M787.5,453.5l3-2s-173-130-179-128c0,0,127.8,104.1,149.9,113.6l7.1,2.4,19,14Z"/>
      <polygon class="cls-4" points="600 321.6 549.5 298.5 562.5 302.5 600 318.8 600 321.6"/>
      <path class="cls-4" d="M622.5,323.5s-9-4-7-12l5.7-251.3h-2.7l-8,230.3s2,5.6,0,27.3l12,5.7Z"/>
      <path class="cls-4" d="M621.5,272.5v40s0,6,4,7l160,123s2,2,9,0l23-17,6.3-1.8-202.3-151.2Z"/>
      <path class="cls-4" d="M601.5,314.5l10.6-254.3-45.6-2.7-1.8,10.1s12.8-1.1,13.8,6.9c0,0,2,4-15,4l-2,14v3.6l7,.4,4-1h26v7l-17,1v-3h13v-3h-22l-4,2-9-1-6,2-20-4-16-6-23,28,43,20-2,2-84-40-87,96,36,26,22,11,4-3,2.1,2-3.1,3,13,6,3-3,1.9,1.2-1.9,2.8,9,5,50-57,62,29s6.7,6,6.4,11.5c0,0,2.6,6.5-8.4,9.5l-24-11-24,28s-24.4-6.4-24.2-8.2c0,0-1.8-4.8-4.8-3.8l-19-10-11,13,99,46,6,1,43,19Z"/>
      <polygon class="cls-4" points="453.5 98.5 491.5 117.5 511.5 93.5 482.5 80.8 497.5 65.9 507.5 70.5 506.5 72.5 497.5 69.6 488.3 79.9 513.5 91.7 542.3 51.5 509.5 36.6 453.5 98.5"/>
      <polygon class="cls-4" points="513.5 32.7 511.5 34.5 528.5 40.5 513.5 32.7"/>
      <polygon class="cls-4" points="545.1 52.5 520 88.1 534.5 94.5 552.5 97.5 557.5 96.5 564 57.5 545.1 52.5"/>
      <path class="cls-4" d="M564.7,69.9l-.7,6.3s12.1,1.4,11.3-3.1c0,0,.7-3.7-10.6-3.1Z"/>
      <polyline class="cls-4" points="165.2 432.4 155.5 421.2 185 389 216.5 419.5 180.9 440.3"/>
      <polyline class="cls-4" points="183.7 443.2 218.5 422 227.5 425.5 264.5 460.5 264.5 465 278.7 479 242.5 502.5"/>
      <polyline class="cls-4" points="243.5 505.5 280.5 481.5 315.5 515.5 279.5 541.4"/>
      <polyline class="cls-4" points="283.5 545.5 317.5 518.5 329.6 528.5"/>
    </g>
  </g>
</svg>