<svg width="11" height="12" viewBox="0 0 11 12" fill="none" xmlns="http://www.w3.org/2000/svg">
<path d="M3.27144 0.0478516H7.73536C9.4359 0.0478516 10.8176 1.54077 10.8176 3.37821V8.20148C10.8176 9.08474 10.4929 9.93183 9.91482 10.5564C9.33679 11.181 8.55282 11.5318 7.73536 11.5318H3.27144C1.5709 11.5318 0.189209 10.0389 0.189209 8.20148V3.37821C0.189209 2.49494 0.513943 1.64785 1.09197 1.02329C1.67 0.398727 2.45398 0.0478516 3.27144 0.0478516ZM3.16515 1.19625C2.65777 1.19625 2.17116 1.41403 1.81238 1.80169C1.45361 2.18935 1.25205 2.71513 1.25205 3.26337V8.31632C1.25205 9.45897 2.10763 10.3834 3.16515 10.3834H7.84164C8.34903 10.3834 8.83564 10.1656 9.19441 9.77799C9.55319 9.39033 9.75475 8.86455 9.75475 8.31632V3.26337C9.75475 2.12071 8.89916 1.19625 7.84164 1.19625H3.16515ZM8.29335 2.05755C8.46952 2.05755 8.63848 2.13317 8.76306 2.26777C8.88764 2.40238 8.95762 2.58494 8.95762 2.7753C8.95762 2.96566 8.88764 3.14822 8.76306 3.28282C8.63848 3.41743 8.46952 3.49305 8.29335 3.49305C8.11717 3.49305 7.94821 3.41743 7.82363 3.28282C7.69906 3.14822 7.62907 2.96566 7.62907 2.7753C7.62907 2.58494 7.69906 2.40238 7.82363 2.26777C7.94821 2.13317 8.11717 2.05755 8.29335 2.05755ZM5.5034 2.91885C6.2081 2.91885 6.88395 3.22133 7.38225 3.75974C7.88055 4.29816 8.16049 5.02841 8.16049 5.78984C8.16049 6.55128 7.88055 7.28152 7.38225 7.81994C6.88395 8.35836 6.2081 8.66084 5.5034 8.66084C4.79869 8.66084 4.12285 8.35836 3.62455 7.81994C3.12625 7.28152 2.8463 6.55128 2.8463 5.78984C2.8463 5.02841 3.12625 4.29816 3.62455 3.75974C4.12285 3.22133 4.79869 2.91885 5.5034 2.91885ZM5.5034 4.06724C5.08057 4.06724 4.67507 4.24873 4.37609 4.57178C4.07711 4.89483 3.90914 5.33298 3.90914 5.78984C3.90914 6.2467 4.07711 6.68485 4.37609 7.0079C4.67507 7.33095 5.08057 7.51244 5.5034 7.51244C5.92622 7.51244 6.33173 7.33095 6.63071 7.0079C6.92969 6.68485 7.09765 6.2467 7.09765 5.78984C7.09765 5.33298 6.92969 4.89483 6.63071 4.57178C6.33173 4.24873 5.92622 4.06724 5.5034 4.06724Z" fill="black"/>
</svg>
