<svg width="12" height="12" viewBox="0 0 12 12" fill="none" xmlns="http://www.w3.org/2000/svg">
<path d="M3.01675 5.15822C4.71729 4.06724 7.56038 3.9524 9.18121 4.49789C9.44692 4.58402 9.71263 4.41176 9.79234 4.15337C9.87205 3.86627 9.71263 3.57917 9.47349 3.49304C7.58695 2.89014 4.47815 3.00498 2.5119 4.26821C2.27276 4.41176 2.19305 4.75628 2.3259 5.01467C2.45876 5.21564 2.77761 5.30177 3.01675 5.15822ZM3.06989 6.76598C3.20274 6.96695 3.44188 7.05308 3.62788 6.90953C5.06271 5.9621 7.24153 5.675 8.9155 6.2492C9.12807 6.30662 9.3672 6.19178 9.42035 5.9621C9.47349 5.73242 9.3672 5.47403 9.15464 5.41661C7.21496 4.78499 4.82357 5.1008 3.17617 6.19178C3.01675 6.27791 2.93704 6.56501 3.06989 6.76598ZM3.70759 8.34503C3.81388 8.51729 3.99987 8.57471 4.1593 8.45987C5.40813 7.62728 6.97582 7.45502 8.83579 7.91438C9.02178 7.9718 9.18121 7.82825 9.23435 7.65599C9.28749 7.45502 9.15464 7.28276 8.99521 7.22534C6.97582 6.73727 5.22214 6.93824 3.84045 7.85696C3.65445 7.94309 3.62788 8.17277 3.70759 8.34503ZM6.15212 0.0478516C6.84999 0.0478516 7.54102 0.196373 8.18577 0.484934C8.83052 0.773496 9.41635 1.19645 9.90982 1.72964C10.9064 2.80647 11.4663 4.26697 11.4663 5.78984C11.4663 7.31271 10.9064 8.77321 9.90982 9.85004C9.41635 10.3832 8.83052 10.8062 8.18577 11.0947C7.54102 11.3833 6.84999 11.5318 6.15212 11.5318C4.74271 11.5318 3.39102 10.9269 2.39442 9.85004C1.39782 8.77321 0.837931 7.31271 0.837931 5.78984C0.837931 5.03579 0.975386 4.28913 1.24245 3.59248C1.50951 2.89583 1.90095 2.26283 2.39442 1.72964C2.88789 1.19645 3.47372 0.773496 4.11847 0.484934C4.76321 0.196373 5.45425 0.0478516 6.15212 0.0478516Z" fill="black"/>
</svg>
