<svg width="17" height="12" viewBox="0 0 17 12" fill="none" xmlns="http://www.w3.org/2000/svg">
<path d="M7.08107 8.25069L11.3242 5.78984L7.08107 3.32899V8.25069ZM16.5321 1.82787C16.6384 2.2134 16.712 2.73018 16.7611 3.38641C16.8183 4.04264 16.8428 4.60863 16.8428 5.1008L16.8919 5.78984C16.8919 7.58626 16.7611 8.90692 16.5321 9.75181C16.3278 10.4901 15.8536 10.9658 15.1178 11.1709C14.7335 11.2775 14.0304 11.3514 12.9512 11.4006C11.8884 11.458 10.9155 11.4826 10.0161 11.4826L8.7162 11.5318C5.2906 11.5318 3.15674 11.4006 2.31465 11.1709C1.57884 10.9658 1.10465 10.4901 0.900257 9.75181C0.793973 9.36628 0.720392 8.8495 0.671338 8.19327C0.614108 7.53705 0.589581 6.97105 0.589581 6.47888L0.540527 5.78984C0.540527 3.99342 0.671338 2.67276 0.900257 1.82787C1.10465 1.08961 1.57884 0.613848 2.31465 0.408777C2.69891 0.30214 3.40201 0.228314 4.4812 0.179097C5.54404 0.121677 6.51695 0.0970686 7.41627 0.0970686L8.7162 0.0478516C12.1418 0.0478516 14.2757 0.179097 15.1178 0.408777C15.8536 0.613848 16.3278 1.08961 16.5321 1.82787Z" fill="black"/>
</svg>
